<svg width="36" height="36" viewBox="0 0 36 36" fill="none" xmlns="http://www.w3.org/2000/svg">
<g id="mail-icon" clip-path="url(#clip0_1_2861)">
<g id="Group">
<g id="Group_2">
<path id="Vector" d="M35.6832 7.15247L24.7651 18.0002L35.6832 28.8479C35.8806 28.4354 36.0003 27.9794 36.0003 27.4924V8.50802C36.0003 8.02097 35.8806 7.56499 35.6832 7.15247Z" fill="#3C93F0"/>
</g>
</g>
<g id="Group_3">
<g id="Group_4">
<path id="Vector_2" d="M32.8355 5.34375H3.16366C2.67661 5.34375 2.22063 5.46349 1.80811 5.66086L15.7625 19.545C16.9964 20.7789 19.0028 20.7789 20.2367 19.545L34.1911 5.66086C33.7786 5.46349 33.3226 5.34375 32.8355 5.34375Z" fill="#3C93F0"/>
</g>
</g>
<g id="Group_5">
<g id="Group_6">
<path id="Vector_3" d="M0.317109 7.15247C0.119742 7.56499 0 8.02097 0 8.50802V27.4924C0 27.9795 0.119742 28.4355 0.317109 28.8479L11.2352 18.0002L0.317109 7.15247Z" fill="#3C93F0"/>
</g>
</g>
<g id="Group_7">
<g id="Group_8">
<path id="Vector_4" d="M23.273 19.4916L21.7281 21.0366C19.6722 23.0924 16.3269 23.0924 14.2711 21.0366L12.7262 19.4916L1.80811 30.3393C2.22063 30.5367 2.67661 30.6564 3.16366 30.6564H32.8355C33.3226 30.6564 33.7786 30.5367 34.1911 30.3393L23.273 19.4916Z" fill="#3C93F0"/>
</g>
</g>
</g>
<defs>
<clipPath id="clip0_1_2861">
<rect width="36" height="36" fill="white"/>
</clipPath>
</defs>
</svg>
